<svg xmlns="http://www.w3.org/2000/svg" width="612" height="792" viewBox="0 0 612 792">
<rect x="0" y="0" width="612" height="792" fill="white"/>
<path d="M 35.8 19.8 L 576.2 19.8 C 585.04 19.8 592.2 26.96 592.2 35.8 L 592.2 756.2 C 592.2 765.04 585.04 772.2 576.2 772.2 L 35.8 772.2 C 26.96 772.2 19.8 765.04 19.8 756.2 L 19.8 35.8 C 19.8 26.96 26.96 19.8 35.8 19.8 Z" fill="none" stroke="black" stroke-width="1.4" stroke-linecap="round" stroke-linejoin="round"/>
<path d="M 229.36 373.52 C 229.36 405.55 203.39 431.52 171.36 431.52 C 139.33 431.52 113.36 405.55 113.36 373.52 C 113.36 341.49 139.33 315.52 171.36 315.52 C 203.39 315.52 229.36 341.49 229.36 373.52 Z" fill="none" stroke="black" stroke-width="3.4" stroke-linecap="round" stroke-linejoin="round"/>
<path d="M 137.36 313.52 C 137.36 244.2 136.02 244.2 141.62 244.2 C 147.22 244.2 165.36 244.2 165.36 313.52 Z" fill="none" stroke="black" stroke-width="3.4" stroke-linecap="round" stroke-linejoin="round"/>
<path d="M 144.36 313.52 C 144.36 271.93 141.62 265 141.62 244.2 C 141.62 265 158.36 271.93 158.36 313.52" fill="none" stroke="black" stroke-width="1.8" stroke-linecap="round" stroke-linejoin="round"/>
<path d="M 177.36 313.52 C 177.36 244.2 195.5 244.2 201.1 244.2 C 206.7 244.2 205.36 244.2 205.36 313.52 Z" fill="none" stroke="black" stroke-width="3.4" stroke-linecap="round" stroke-linejoin="round"/>
<path d="M 184.36 313.52 C 184.36 271.93 201.1 265 201.1 244.2 C 201.1 265 198.36 271.93 198.36 313.52" fill="none" stroke="black" stroke-width="1.8" stroke-linecap="round" stroke-linejoin="round"/>
<path d="M 162.24 371.52 C 162.24 380.18 156.47 387.2 149.36 387.2 C 142.25 387.2 136.48 380.18 136.48 371.52 C 136.48 362.86 142.25 355.84 149.36 355.84 C 156.47 355.84 162.24 362.86 162.24 371.52 Z" fill="none" stroke="black" stroke-width="2.4" stroke-linecap="round" stroke-linejoin="round"/>
<path d="M 158.04 373.76 C 158.04 378.55 154.15 382.44 149.36 382.44 C 144.57 382.44 140.68 378.55 140.68 373.76 C 140.68 368.97 144.57 365.08 149.36 365.08 C 154.15 365.08 158.04 368.97 158.04 373.76 Z" fill="none" stroke="black" stroke-width="1.8" stroke-linecap="round" stroke-linejoin="round"/>
<path d="M 148.8 368.44 C 148.8 370.14 147.42 371.52 145.72 371.52 C 144.02 371.52 142.64 370.14 142.64 368.44 C 142.64 366.74 144.02 365.36 145.72 365.36 C 147.42 365.36 148.8 366.74 148.8 368.44 Z" fill="none" stroke="black" stroke-width="1.8" stroke-linecap="round" stroke-linejoin="round"/>
<path d="M 153.28 376 C 153.28 376.77 152.65 377.4 151.88 377.4 C 151.11 377.4 150.48 376.77 150.48 376 C 150.48 375.23 151.11 374.6 151.88 374.6 C 152.65 374.6 153.28 375.23 153.28 376 Z" fill="none" stroke="black" stroke-width="1.8" stroke-linecap="round" stroke-linejoin="round"/>
<path d="M 206.24 371.52 C 206.24 380.18 200.47 387.2 193.36 387.2 C 186.25 387.2 180.48 380.18 180.48 371.52 C 180.48 362.86 186.25 355.84 193.36 355.84 C 200.47 355.84 206.24 362.86 206.24 371.52 Z" fill="none" stroke="black" stroke-width="2.4" stroke-linecap="round" stroke-linejoin="round"/>
<path d="M 202.04 373.76 C 202.04 378.55 198.15 382.44 193.36 382.44 C 188.57 382.44 184.68 378.55 184.68 373.76 C 184.68 368.97 188.57 365.08 193.36 365.08 C 198.15 365.08 202.04 368.97 202.04 373.76 Z" fill="none" stroke="black" stroke-width="1.8" stroke-linecap="round" stroke-linejoin="round"/>
<path d="M 200.08 368.44 C 200.08 370.14 198.7 371.52 197 371.52 C 195.3 371.52 193.92 370.14 193.92 368.44 C 193.92 366.74 195.3 365.36 197 365.36 C 198.7 365.36 200.08 366.74 200.08 368.44 Z" fill="none" stroke="black" stroke-width="1.8" stroke-linecap="round" stroke-linejoin="round"/>
<path d="M 192.24 376 C 192.24 376.77 191.61 377.4 190.84 377.4 C 190.07 377.4 189.44 376.77 189.44 376 C 189.44 375.23 190.07 374.6 190.84 374.6 C 191.61 374.6 192.24 375.23 192.24 376 Z" fill="none" stroke="black" stroke-width="1.8" stroke-linecap="round" stroke-linejoin="round"/>
<path d="M 149.36 393.52 C 162.56 410.02 180.16 410.02 193.36 393.52" fill="none" stroke="black" stroke-width="2.4" stroke-linecap="round" stroke-linejoin="round"/>
<path d="M 227.36 449.52 C 227.36 482.66 202.29 509.52 171.36 509.52 C 140.43 509.52 115.36 482.66 115.36 449.52 C 115.36 416.38 140.43 389.52 171.36 389.52 C 202.29 389.52 227.36 416.38 227.36 449.52 Z" fill="none" stroke="black" stroke-width="3.4" stroke-linecap="round" stroke-linejoin="round"/>
<path d="M 372 363.52 C 372 399.97 342.45 429.52 306 429.52 C 269.55 429.52 240 399.97 240 363.52 C 240 327.07 269.55 297.52 306 297.52 C 342.45 297.52 372 327.07 372 363.52 Z" fill="none" stroke="black" stroke-width="3.4" stroke-linecap="round" stroke-linejoin="round"/>
<path d="M 266 377.52 C 266 401.82 256.15 421.52 244 421.52 C 231.85 421.52 222 401.82 222 377.52 C 222 353.22 231.85 333.52 244 333.52 C 256.15 333.52 266 353.22 266 377.52 Z" fill="none" stroke="black" stroke-width="3.4" stroke-linecap="round" stroke-linejoin="round"/>
<path d="M 390 377.52 C 390 401.82 380.15 421.52 368 421.52 C 355.85 421.52 346 401.82 346 377.52 C 346 353.22 355.85 333.52 368 333.52 C 380.15 333.52 390 353.22 390 377.52 Z" fill="none" stroke="black" stroke-width="3.4" stroke-linecap="round" stroke-linejoin="round"/>
<path d="M 295.72 361.52 C 295.72 371.42 289.13 379.44 281 379.44 C 272.87 379.44 266.28 371.42 266.28 361.52 C 266.28 351.62 272.87 343.6 281 343.6 C 289.13 343.6 295.72 351.62 295.72 361.52 Z" fill="none" stroke="black" stroke-width="2.4" stroke-linecap="round" stroke-linejoin="round"/>
<path d="M 290.92 364.08 C 290.92 369.56 286.48 374 281 374 C 275.52 374 271.08 369.56 271.08 364.08 C 271.08 358.6 275.52 354.16 281 354.16 C 286.48 354.16 290.92 358.6 290.92 364.08 Z" fill="none" stroke="black" stroke-width="1.8" stroke-linecap="round" stroke-linejoin="round"/>
<path d="M 280.36 358 C 280.36 359.94 278.78 361.52 276.84 361.52 C 274.9 361.52 273.32 359.94 273.32 358 C 273.32 356.06 274.9 354.48 276.84 354.48 C 278.78 354.48 280.36 356.06 280.36 358 Z" fill="none" stroke="black" stroke-width="1.8" stroke-linecap="round" stroke-linejoin="round"/>
<path d="M 285.48 366.64 C 285.48 367.52 284.76 368.24 283.88 368.24 C 283 368.24 282.28 367.52 282.28 366.64 C 282.28 365.76 283 365.04 283.88 365.04 C 284.76 365.04 285.48 365.76 285.48 366.64 Z" fill="none" stroke="black" stroke-width="1.8" stroke-linecap="round" stroke-linejoin="round"/>
<path d="M 345.72 361.52 C 345.72 371.42 339.13 379.44 331 379.44 C 322.87 379.44 316.28 371.42 316.28 361.52 C 316.28 351.62 322.87 343.6 331 343.6 C 339.13 343.6 345.72 351.62 345.72 361.52 Z" fill="none" stroke="black" stroke-width="2.4" stroke-linecap="round" stroke-linejoin="round"/>
<path d="M 340.92 364.08 C 340.92 369.56 336.48 374 331 374 C 325.52 374 321.08 369.56 321.08 364.08 C 321.08 358.6 325.52 354.16 331 354.16 C 336.48 354.16 340.92 358.6 340.92 364.08 Z" fill="none" stroke="black" stroke-width="1.8" stroke-linecap="round" stroke-linejoin="round"/>
<path d="M 338.68 358 C 338.68 359.94 337.1 361.52 335.16 361.52 C 333.22 361.52 331.64 359.94 331.64 358 C 331.64 356.06 333.22 354.48 335.16 354.48 C 337.1 354.48 338.68 356.06 338.68 358 Z" fill="none" stroke="black" stroke-width="1.8" stroke-linecap="round" stroke-linejoin="round"/>
<path d="M 329.72 366.64 C 329.72 367.52 329 368.24 328.12 368.24 C 327.24 368.24 326.52 367.52 326.52 366.64 C 326.52 365.76 327.24 365.04 328.12 365.04 C 329 365.04 329.72 365.76 329.72 366.64 Z" fill="none" stroke="black" stroke-width="1.8" stroke-linecap="round" stroke-linejoin="round"/>
<path d="M 318 391.52 C 318 396.16 312.63 399.92 306 399.92 C 299.37 399.92 294 396.16 294 391.52 C 294 386.88 299.37 383.12 306 383.12 C 312.63 383.12 318 386.88 318 391.52 Z" fill="none" stroke="black" stroke-width="2.4" stroke-linecap="round" stroke-linejoin="round"/>
<path d="M 306 399.92 L 306 410.72" fill="none" stroke="black" stroke-width="1.8" stroke-linecap="round" stroke-linejoin="round"/>
<path d="M 305.28 414.82 L 303.76 417.7 L 301.53 420.06 L 298.75 421.74 L 295.62 422.61 L 292.38 422.61 L 289.25 421.74 L 286.47 420.06 L 284.24 417.7 L 282.72 414.82" fill="none" stroke="black" stroke-width="1.8" stroke-linecap="round" stroke-linejoin="round"/>
<path d="M 329.28 414.82 L 327.76 417.7 L 325.53 420.06 L 322.75 421.74 L 319.62 422.61 L 316.38 422.61 L 313.25 421.74 L 310.47 420.06 L 308.24 417.7 L 306.72 414.82" fill="none" stroke="black" stroke-width="1.8" stroke-linecap="round" stroke-linejoin="round"/>
<path d="M 370 451.52 C 370 487.97 341.35 517.52 306 517.52 C 270.65 517.52 242 487.97 242 451.52 C 242 415.07 270.65 385.52 306 385.52 C 341.35 385.52 370 415.07 370 451.52 Z" fill="none" stroke="black" stroke-width="3.4" stroke-linecap="round" stroke-linejoin="round"/>
<path d="M 498.64 373.52 C 498.64 405.55 472.67 431.52 440.64 431.52 C 408.61 431.52 382.64 405.55 382.64 373.52 C 382.64 341.49 408.61 315.52 440.64 315.52 C 472.67 315.52 498.64 341.49 498.64 373.52 Z" fill="none" stroke="black" stroke-width="3.4" stroke-linecap="round" stroke-linejoin="round"/>
<path d="M 384.64 359.52 L 400.64 315.52 L 418.64 351.52 Z" fill="none" stroke="black" stroke-width="3.4" stroke-linecap="round" stroke-linejoin="round"/>
<path d="M 393.14 357.52 L 400.64 315.52 L 410.14 353.52" fill="none" stroke="black" stroke-width="1.8" stroke-linecap="round" stroke-linejoin="round"/>
<path d="M 462.64 351.52 L 480.64 315.52 L 496.64 359.52 Z" fill="none" stroke="black" stroke-width="3.4" stroke-linecap="round" stroke-linejoin="round"/>
<path d="M 471.14 353.52 L 480.64 315.52 L 488.14 357.52" fill="none" stroke="black" stroke-width="1.8" stroke-linecap="round" stroke-linejoin="round"/>
<path d="M 431.52 371.52 C 431.52 380.18 425.75 387.2 418.64 387.2 C 411.53 387.2 405.76 380.18 405.76 371.52 C 405.76 362.86 411.53 355.84 418.64 355.84 C 425.75 355.84 431.52 362.86 431.52 371.52 Z" fill="none" stroke="black" stroke-width="2.4" stroke-linecap="round" stroke-linejoin="round"/>
<path d="M 427.32 373.76 C 427.32 378.55 423.43 382.44 418.64 382.44 C 413.85 382.44 409.96 378.55 409.96 373.76 C 409.96 368.97 413.85 365.08 418.64 365.08 C 423.43 365.08 427.32 368.97 427.32 373.76 Z" fill="none" stroke="black" stroke-width="1.8" stroke-linecap="round" stroke-linejoin="round"/>
<path d="M 418.08 368.44 C 418.08 370.14 416.7 371.52 415 371.52 C 413.3 371.52 411.92 370.14 411.92 368.44 C 411.92 366.74 413.3 365.36 415 365.36 C 416.7 365.36 418.08 366.74 418.08 368.44 Z" fill="none" stroke="black" stroke-width="1.8" stroke-linecap="round" stroke-linejoin="round"/>
<path d="M 422.56 376 C 422.56 376.77 421.93 377.4 421.16 377.4 C 420.39 377.4 419.76 376.77 419.76 376 C 419.76 375.23 420.39 374.6 421.16 374.6 C 421.93 374.6 422.56 375.23 422.56 376 Z" fill="none" stroke="black" stroke-width="1.8" stroke-linecap="round" stroke-linejoin="round"/>
<path d="M 475.52 371.52 C 475.52 380.18 469.75 387.2 462.64 387.2 C 455.53 387.2 449.76 380.18 449.76 371.52 C 449.76 362.86 455.53 355.84 462.64 355.84 C 469.75 355.84 475.52 362.86 475.52 371.52 Z" fill="none" stroke="black" stroke-width="2.4" stroke-linecap="round" stroke-linejoin="round"/>
<path d="M 471.32 373.76 C 471.32 378.55 467.43 382.44 462.64 382.44 C 457.85 382.44 453.96 378.55 453.96 373.76 C 453.96 368.97 457.85 365.08 462.64 365.08 C 467.43 365.08 471.32 368.97 471.32 373.76 Z" fill="none" stroke="black" stroke-width="1.8" stroke-linecap="round" stroke-linejoin="round"/>
<path d="M 469.36 368.44 C 469.36 370.14 467.98 371.52 466.28 371.52 C 464.58 371.52 463.2 370.14 463.2 368.44 C 463.2 366.74 464.58 365.36 466.28 365.36 C 467.98 365.36 469.36 366.74 469.36 368.44 Z" fill="none" stroke="black" stroke-width="1.8" stroke-linecap="round" stroke-linejoin="round"/>
<path d="M 461.52 376 C 461.52 376.77 460.89 377.4 460.12 377.4 C 459.35 377.4 458.72 376.77 458.72 376 C 458.72 375.23 459.35 374.6 460.12 374.6 C 460.89 374.6 461.52 375.23 461.52 376 Z" fill="none" stroke="black" stroke-width="1.8" stroke-linecap="round" stroke-linejoin="round"/>
<path d="M 426.64 390.52 L 396.64 393.32" fill="none" stroke="black" stroke-width="1.8" stroke-linecap="round" stroke-linejoin="round"/>
<path d="M 426.64 396.52 L 396.64 401.72" fill="none" stroke="black" stroke-width="1.8" stroke-linecap="round" stroke-linejoin="round"/>
<path d="M 454.64 390.52 L 484.64 393.32" fill="none" stroke="black" stroke-width="1.8" stroke-linecap="round" stroke-linejoin="round"/>
<path d="M 454.64 396.52 L 484.64 401.72" fill="none" stroke="black" stroke-width="1.8" stroke-linecap="round" stroke-linejoin="round"/>
<path d="M 496.64 449.52 C 496.64 482.66 471.57 509.52 440.64 509.52 C 409.71 509.52 384.64 482.66 384.64 449.52 C 384.64 416.38 409.71 389.52 440.64 389.52 C 471.57 389.52 496.64 416.38 496.64 449.52 Z" fill="none" stroke="black" stroke-width="3.4" stroke-linecap="round" stroke-linejoin="round"/>
<path d="M 71.57 670 L 77.57 654 L 83.57 670" fill="none" stroke="black" stroke-width="1.8" stroke-linecap="round" stroke-linejoin="round"/>
<path d="M 106.71 670 L 112.71 654 L 118.71 670" fill="none" stroke="black" stroke-width="1.8" stroke-linecap="round" stroke-linejoin="round"/>
<path d="M 141.86 670 L 147.86 654 L 153.86 670" fill="none" stroke="black" stroke-width="1.8" stroke-linecap="round" stroke-linejoin="round"/>
<path d="M 177 670 L 183 654 L 189 670" fill="none" stroke="black" stroke-width="1.8" stroke-linecap="round" stroke-linejoin="round"/>
<path d="M 212.14 670 L 218.14 654 L 224.14 670" fill="none" stroke="black" stroke-width="1.8" stroke-linecap="round" stroke-linejoin="round"/>
<path d="M 247.29 670 L 253.29 654 L 259.29 670" fill="none" stroke="black" stroke-width="1.8" stroke-linecap="round" stroke-linejoin="round"/>
<path d="M 282.43 670 L 288.43 654 L 294.43 670" fill="none" stroke="black" stroke-width="1.8" stroke-linecap="round" stroke-linejoin="round"/>
<path d="M 317.57 670 L 323.57 654 L 329.57 670" fill="none" stroke="black" stroke-width="1.8" stroke-linecap="round" stroke-linejoin="round"/>
<path d="M 352.71 670 L 358.71 654 L 364.71 670" fill="none" stroke="black" stroke-width="1.8" stroke-linecap="round" stroke-linejoin="round"/>
<path d="M 387.86 670 L 393.86 654 L 399.86 670" fill="none" stroke="black" stroke-width="1.8" stroke-linecap="round" stroke-linejoin="round"/>
<path d="M 423 670 L 429 654 L 435 670" fill="none" stroke="black" stroke-width="1.8" stroke-linecap="round" stroke-linejoin="round"/>
<path d="M 458.14 670 L 464.14 654 L 470.14 670" fill="none" stroke="black" stroke-width="1.8" stroke-linecap="round" stroke-linejoin="round"/>
<path d="M 493.29 670 L 499.29 654 L 505.29 670" fill="none" stroke="black" stroke-width="1.8" stroke-linecap="round" stroke-linejoin="round"/>
<path d="M 528.43 670 L 534.43 654 L 540.43 670" fill="none" stroke="black" stroke-width="1.8" stroke-linecap="round" stroke-linejoin="round"/>
<path d="M 107.02 617.76 C 107.02 622.79 102.95 626.86 97.92 626.86 C 92.89 626.86 88.82 622.79 88.82 617.76 C 88.82 612.73 92.89 608.66 97.92 608.66 C 102.95 608.66 107.02 612.73 107.02 617.76 Z" fill="none" stroke="black" stroke-width="2.4" stroke-linecap="round" stroke-linejoin="round"/>
<path d="M 108.84 591.76 C 108.84 597.79 103.95 602.68 97.92 602.68 C 91.89 602.68 87 597.79 87 591.76 C 87 585.73 91.89 580.84 97.92 580.84 C 103.95 580.84 108.84 585.73 108.84 591.76 Z" fill="none" stroke="black" stroke-width="2.4" stroke-linecap="round" stroke-linejoin="round"/>
<path d="M 133.57 609.73 C 133.57 615.76 128.68 620.65 122.65 620.65 C 116.62 620.65 111.73 615.76 111.73 609.73 C 111.73 603.69 116.62 598.81 122.65 598.81 C 128.68 598.81 133.57 603.69 133.57 609.73 Z" fill="none" stroke="black" stroke-width="2.4" stroke-linecap="round" stroke-linejoin="round"/>
<path d="M 124.12 638.79 C 124.12 644.83 119.23 649.71 113.2 649.71 C 107.17 649.71 102.28 644.83 102.28 638.79 C 102.28 632.76 107.17 627.87 113.2 627.87 C 119.23 627.87 124.12 632.76 124.12 638.79 Z" fill="none" stroke="black" stroke-width="2.4" stroke-linecap="round" stroke-linejoin="round"/>
<path d="M 93.56 638.79 C 93.56 644.83 88.67 649.71 82.64 649.71 C 76.61 649.71 71.72 644.83 71.72 638.79 C 71.72 632.76 76.61 627.87 82.64 627.87 C 88.67 627.87 93.56 632.76 93.56 638.79 Z" fill="none" stroke="black" stroke-width="2.4" stroke-linecap="round" stroke-linejoin="round"/>
<path d="M 84.11 609.73 C 84.11 615.76 79.22 620.65 73.19 620.65 C 67.16 620.65 62.27 615.76 62.27 609.73 C 62.27 603.69 67.16 598.81 73.19 598.81 C 79.22 598.81 84.11 603.69 84.11 609.73 Z" fill="none" stroke="black" stroke-width="2.4" stroke-linecap="round" stroke-linejoin="round"/>
<path d="M 535.42 617.76 C 535.42 622.79 531.35 626.86 526.32 626.86 C 521.29 626.86 517.22 622.79 517.22 617.76 C 517.22 612.73 521.29 608.66 526.32 608.66 C 531.35 608.66 535.42 612.73 535.42 617.76 Z" fill="none" stroke="black" stroke-width="2.4" stroke-linecap="round" stroke-linejoin="round"/>
<path d="M 537.24 591.76 C 537.24 597.79 532.35 602.68 526.32 602.68 C 520.29 602.68 515.4 597.79 515.4 591.76 C 515.4 585.73 520.29 580.84 526.32 580.84 C 532.35 580.84 537.24 585.73 537.24 591.76 Z" fill="none" stroke="black" stroke-width="2.4" stroke-linecap="round" stroke-linejoin="round"/>
<path d="M 561.97 609.73 C 561.97 615.76 557.08 620.65 551.05 620.65 C 545.02 620.65 540.13 615.76 540.13 609.73 C 540.13 603.69 545.02 598.81 551.05 598.81 C 557.08 598.81 561.97 603.69 561.97 609.73 Z" fill="none" stroke="black" stroke-width="2.4" stroke-linecap="round" stroke-linejoin="round"/>
<path d="M 552.52 638.79 C 552.52 644.83 547.63 649.71 541.6 649.71 C 535.57 649.71 530.68 644.83 530.68 638.79 C 530.68 632.76 535.57 627.87 541.6 627.87 C 547.63 627.87 552.52 632.76 552.52 638.79 Z" fill="none" stroke="black" stroke-width="2.4" stroke-linecap="round" stroke-linejoin="round"/>
<path d="M 521.96 638.79 C 521.96 644.83 517.07 649.71 511.04 649.71 C 505.01 649.71 500.12 644.83 500.12 638.79 C 500.12 632.76 505.01 627.87 511.04 627.87 C 517.07 627.87 521.96 632.76 521.96 638.79 Z" fill="none" stroke="black" stroke-width="2.4" stroke-linecap="round" stroke-linejoin="round"/>
<path d="M 512.51 609.73 C 512.51 615.76 507.62 620.65 501.59 620.65 C 495.56 620.65 490.67 615.76 490.67 609.73 C 490.67 603.69 495.56 598.81 501.59 598.81 C 507.62 598.81 512.51 603.69 512.51 609.73 Z" fill="none" stroke="black" stroke-width="2.4" stroke-linecap="round" stroke-linejoin="round"/>
<path d="M 188.9 762.88 L 188.9 752.88 L 195.9 752.88 L 198.4 755.38 L 195.9 757.88 L 188.9 757.88" fill="none" stroke="black" stroke-width="1.3" stroke-linecap="round" stroke-linejoin="round"/>
<path d="M 200.7 752.88 L 200.7 760.88 L 205.7 762.88 L 210.7 760.88 L 210.7 752.88" fill="none" stroke="black" stroke-width="1.3" stroke-linecap="round" stroke-linejoin="round"/>
<path d="M 212.5 762.88 L 212.5 752.88 L 219.5 752.88 L 222 755.38 L 219.5 757.88 L 212.5 757.88" fill="none" stroke="black" stroke-width="1.3" stroke-linecap="round" stroke-linejoin="round"/>
<path d="M 224.3 762.88 L 224.3 752.88 L 231.3 752.88 L 233.8 755.38 L 231.3 757.88 L 224.3 757.88" fill="none" stroke="black" stroke-width="1.3" stroke-linecap="round" stroke-linejoin="round"/>
<path d="M 236.1 752.88 L 241.1 757.88 L 246.1 752.88" fill="none" stroke="black" stroke-width="1.3" stroke-linecap="round" stroke-linejoin="round"/>
<path d="M 241.1 757.88 L 241.1 762.88" fill="none" stroke="black" stroke-width="1.3" stroke-linecap="round" stroke-linejoin="round"/>
<path d="M 259.7 762.88 L 259.7 752.88" fill="none" stroke="black" stroke-width="1.3" stroke-linecap="round" stroke-linejoin="round"/>
<path d="M 269.7 752.88 L 259.7 757.88 L 269.7 762.88" fill="none" stroke="black" stroke-width="1.3" stroke-linecap="round" stroke-linejoin="round"/>
<path d="M 276.5 762.88 L 276.5 752.88" fill="none" stroke="black" stroke-width="1.3" stroke-linecap="round" stroke-linejoin="round"/>
<path d="M 273.5 752.88 L 279.5 752.88" fill="none" stroke="black" stroke-width="1.3" stroke-linecap="round" stroke-linejoin="round"/>
<path d="M 273.5 762.88 L 279.5 762.88" fill="none" stroke="black" stroke-width="1.3" stroke-linecap="round" stroke-linejoin="round"/>
<path d="M 283.3 752.88 L 293.3 752.88" fill="none" stroke="black" stroke-width="1.3" stroke-linecap="round" stroke-linejoin="round"/>
<path d="M 288.3 752.88 L 288.3 762.88" fill="none" stroke="black" stroke-width="1.3" stroke-linecap="round" stroke-linejoin="round"/>
<path d="M 295.1 752.88 L 305.1 752.88" fill="none" stroke="black" stroke-width="1.3" stroke-linecap="round" stroke-linejoin="round"/>
<path d="M 300.1 752.88 L 300.1 762.88" fill="none" stroke="black" stroke-width="1.3" stroke-linecap="round" stroke-linejoin="round"/>
<path d="M 316.9 752.88 L 306.9 752.88 L 306.9 762.88 L 316.9 762.88" fill="none" stroke="black" stroke-width="1.3" stroke-linecap="round" stroke-linejoin="round"/>
<path d="M 306.9 757.88 L 313.9 757.88" fill="none" stroke="black" stroke-width="1.3" stroke-linecap="round" stroke-linejoin="round"/>
<path d="M 318.7 762.88 L 318.7 752.88 L 328.7 762.88 L 328.7 752.88" fill="none" stroke="black" stroke-width="1.3" stroke-linecap="round" stroke-linejoin="round"/>
<path d="M 351.3 762.88 L 344.3 755.88 L 347.3 752.88 L 349.3 755.38 L 342.3 760.38 L 345.3 762.88 L 351.3 757.88" fill="none" stroke="black" stroke-width="1.3" stroke-linecap="round" stroke-linejoin="round"/>
<path d="M 365.9 762.88 L 365.9 752.88 L 372.9 752.88 L 374.9 754.38 L 372.9 757.38 L 365.9 757.38" fill="none" stroke="black" stroke-width="1.3" stroke-linecap="round" stroke-linejoin="round"/>
<path d="M 365.9 757.38 L 373.4 757.38 L 375.4 759.38 L 373.4 762.88 L 365.9 762.88" fill="none" stroke="black" stroke-width="1.3" stroke-linecap="round" stroke-linejoin="round"/>
<path d="M 377.7 752.88 L 377.7 760.88 L 382.7 762.88 L 387.7 760.88 L 387.7 752.88" fill="none" stroke="black" stroke-width="1.3" stroke-linecap="round" stroke-linejoin="round"/>
<path d="M 389.5 762.88 L 389.5 752.88 L 399.5 762.88 L 399.5 752.88" fill="none" stroke="black" stroke-width="1.3" stroke-linecap="round" stroke-linejoin="round"/>
<path d="M 401.3 762.88 L 401.3 752.88 L 411.3 762.88 L 411.3 752.88" fill="none" stroke="black" stroke-width="1.3" stroke-linecap="round" stroke-linejoin="round"/>
<path d="M 413.1 752.88 L 418.1 757.88 L 423.1 752.88" fill="none" stroke="black" stroke-width="1.3" stroke-linecap="round" stroke-linejoin="round"/>
<path d="M 418.1 757.88 L 418.1 762.88" fill="none" stroke="black" stroke-width="1.3" stroke-linecap="round" stroke-linejoin="round"/>
<path d="M 301.32 776.88 L 301.32 764.88 L 292.92 772.68 L 304.92 772.68" fill="none" stroke="black" stroke-width="1.5" stroke-linecap="round" stroke-linejoin="round"/>
<path d="M 310.68 767.28 L 313.08 764.88 L 313.08 776.88" fill="none" stroke="black" stroke-width="1.5" stroke-linecap="round" stroke-linejoin="round"/>
<path d="M 309.48 776.88 L 316.68 776.88" fill="none" stroke="black" stroke-width="1.5" stroke-linecap="round" stroke-linejoin="round"/>
</svg>