<svg xmlns="http://www.w3.org/2000/svg" width="612" height="792" viewBox="0 0 612 792">
<rect x="0" y="0" width="612" height="792" fill="white"/>
<path d="M 35.8 19.8 L 576.2 19.8 C 585.04 19.8 592.2 26.96 592.2 35.8 L 592.2 756.2 C 592.2 765.04 585.04 772.2 576.2 772.2 L 35.8 772.2 C 26.96 772.2 19.8 765.04 19.8 756.2 L 19.8 35.8 C 19.8 26.96 26.96 19.8 35.8 19.8 Z" fill="none" stroke="black" stroke-width="1.4" stroke-linecap="round" stroke-linejoin="round"/>
<path d="M 168.4 397.52 C 168.4 422.93 147.81 443.52 122.4 443.52 C 96.99 443.52 76.4 422.93 76.4 397.52 C 76.4 372.11 96.99 351.52 122.4 351.52 C 147.81 351.52 168.4 372.11 168.4 397.52 Z" fill="none" stroke="black" stroke-width="3.4" stroke-linecap="round" stroke-linejoin="round"/>
<path d="M 96.4 346.92 C 96.4 299.39 95.72 299.39 99.72 299.39 C 103.72 299.39 116.4 299.39 116.4 346.92 Z" fill="none" stroke="black" stroke-width="3.4" stroke-linecap="round" stroke-linejoin="round"/>
<path d="M 101.4 346.92 C 101.4 318.4 99.72 313.65 99.72 299.39 C 99.72 313.65 111.4 318.4 111.4 346.92" fill="none" stroke="black" stroke-width="1.8" stroke-linecap="round" stroke-linejoin="round"/>
<path d="M 128.4 346.92 C 128.4 299.39 141.08 299.39 145.08 299.39 C 149.08 299.39 148.4 299.39 148.4 346.92 Z" fill="none" stroke="black" stroke-width="3.4" stroke-linecap="round" stroke-linejoin="round"/>
<path d="M 133.4 346.92 C 133.4 318.4 145.08 313.65 145.08 299.39 C 145.08 313.65 143.4 318.4 143.4 346.92" fill="none" stroke="black" stroke-width="1.8" stroke-linecap="round" stroke-linejoin="round"/>
<path d="M 115.52 397.52 C 115.52 404.32 110.99 409.84 105.4 409.84 C 99.81 409.84 95.28 404.32 95.28 397.52 C 95.28 390.72 99.81 385.2 105.4 385.2 C 110.99 385.2 115.52 390.72 115.52 397.52 Z" fill="none" stroke="black" stroke-width="2.4" stroke-linecap="round" stroke-linejoin="round"/>
<path d="M 112.22 399.28 C 112.22 403.05 109.17 406.1 105.4 406.1 C 101.63 406.1 98.58 403.05 98.58 399.28 C 98.58 395.51 101.63 392.46 105.4 392.46 C 109.17 392.46 112.22 395.51 112.22 399.28 Z" fill="none" stroke="black" stroke-width="1.8" stroke-linecap="round" stroke-linejoin="round"/>
<path d="M 104.96 395.1 C 104.96 396.44 103.88 397.52 102.54 397.52 C 101.2 397.52 100.12 396.44 100.12 395.1 C 100.12 393.76 101.2 392.68 102.54 392.68 C 103.88 392.68 104.96 393.76 104.96 395.1 Z" fill="none" stroke="black" stroke-width="1.8" stroke-linecap="round" stroke-linejoin="round"/>
<path d="M 108.48 401.04 C 108.48 401.65 107.99 402.14 107.38 402.14 C 106.77 402.14 106.28 401.65 106.28 401.04 C 106.28 400.43 106.77 399.94 107.38 399.94 C 107.99 399.94 108.48 400.43 108.48 401.04 Z" fill="none" stroke="black" stroke-width="1.8" stroke-linecap="round" stroke-linejoin="round"/>
<path d="M 149.52 397.52 C 149.52 404.32 144.99 409.84 139.4 409.84 C 133.81 409.84 129.28 404.32 129.28 397.52 C 129.28 390.72 133.81 385.2 139.4 385.2 C 144.99 385.2 149.52 390.72 149.52 397.52 Z" fill="none" stroke="black" stroke-width="2.4" stroke-linecap="round" stroke-linejoin="round"/>
<path d="M 146.22 399.28 C 146.22 403.05 143.17 406.1 139.4 406.1 C 135.63 406.1 132.58 403.05 132.58 399.28 C 132.58 395.51 135.63 392.46 139.4 392.46 C 143.17 392.46 146.22 395.51 146.22 399.28 Z" fill="none" stroke="black" stroke-width="1.8" stroke-linecap="round" stroke-linejoin="round"/>
<path d="M 144.68 395.1 C 144.68 396.44 143.6 397.52 142.26 397.52 C 140.92 397.52 139.84 396.44 139.84 395.1 C 139.84 393.76 140.92 392.68 142.26 392.68 C 143.6 392.68 144.68 393.76 144.68 395.1 Z" fill="none" stroke="black" stroke-width="1.8" stroke-linecap="round" stroke-linejoin="round"/>
<path d="M 138.52 401.04 C 138.52 401.65 138.03 402.14 137.42 402.14 C 136.81 402.14 136.32 401.65 136.32 401.04 C 136.32 400.43 136.81 399.94 137.42 399.94 C 138.03 399.94 138.52 400.43 138.52 401.04 Z" fill="none" stroke="black" stroke-width="1.8" stroke-linecap="round" stroke-linejoin="round"/>
<path d="M 106.4 415.92 C 116 427.92 128.8 427.92 138.4 415.92" fill="none" stroke="black" stroke-width="2.4" stroke-linecap="round" stroke-linejoin="round"/>
<path d="M 166.4 463.52 C 166.4 490.03 146.7 511.52 122.4 511.52 C 98.1 511.52 78.4 490.03 78.4 463.52 C 78.4 437.01 98.1 415.52 122.4 415.52 C 146.7 415.52 166.4 437.01 166.4 463.52 Z" fill="none" stroke="black" stroke-width="3.4" stroke-linecap="round" stroke-linejoin="round"/>
<path d="M 294.8 399.52 C 294.8 427.13 272.41 449.52 244.8 449.52 C 217.19 449.52 194.8 427.13 194.8 399.52 C 194.8 371.91 217.19 349.52 244.8 349.52 C 272.41 349.52 294.8 371.91 294.8 399.52 Z" fill="none" stroke="black" stroke-width="3.4" stroke-linecap="round" stroke-linejoin="round"/>
<path d="M 224.8 364.52 C 224.8 372.8 218.08 379.52 209.8 379.52 C 201.52 379.52 194.8 372.8 194.8 364.52 C 194.8 356.24 201.52 349.52 209.8 349.52 C 218.08 349.52 224.8 356.24 224.8 364.52 Z" fill="none" stroke="black" stroke-width="3.4" stroke-linecap="round" stroke-linejoin="round"/>
<path d="M 218.05 364.52 C 218.05 369.08 214.36 372.77 209.8 372.77 C 205.24 372.77 201.55 369.08 201.55 364.52 C 201.55 359.96 205.24 356.27 209.8 356.27 C 214.36 356.27 218.05 359.96 218.05 364.52 Z" fill="none" stroke="black" stroke-width="1.8" stroke-linecap="round" stroke-linejoin="round"/>
<path d="M 294.8 364.52 C 294.8 372.8 288.08 379.52 279.8 379.52 C 271.52 379.52 264.8 372.8 264.8 364.52 C 264.8 356.24 271.52 349.52 279.8 349.52 C 288.08 349.52 294.8 356.24 294.8 364.52 Z" fill="none" stroke="black" stroke-width="3.4" stroke-linecap="round" stroke-linejoin="round"/>
<path d="M 288.05 364.52 C 288.05 369.08 284.36 372.77 279.8 372.77 C 275.24 372.77 271.55 369.08 271.55 364.52 C 271.55 359.96 275.24 356.27 279.8 356.27 C 284.36 356.27 288.05 359.96 288.05 364.52 Z" fill="none" stroke="black" stroke-width="1.8" stroke-linecap="round" stroke-linejoin="round"/>
<path d="M 237.84 399.52 C 237.84 406.94 232.9 412.96 226.8 412.96 C 220.7 412.96 215.76 406.94 215.76 399.52 C 215.76 392.1 220.7 386.08 226.8 386.08 C 232.9 386.08 237.84 392.1 237.84 399.52 Z" fill="none" stroke="black" stroke-width="2.4" stroke-linecap="round" stroke-linejoin="round"/>
<path d="M 234.24 401.44 C 234.24 405.55 230.91 408.88 226.8 408.88 C 222.69 408.88 219.36 405.55 219.36 401.44 C 219.36 397.33 222.69 394 226.8 394 C 230.91 394 234.24 397.33 234.24 401.44 Z" fill="none" stroke="black" stroke-width="1.8" stroke-linecap="round" stroke-linejoin="round"/>
<path d="M 226.32 396.88 C 226.32 398.34 225.14 399.52 223.68 399.52 C 222.22 399.52 221.04 398.34 221.04 396.88 C 221.04 395.42 222.22 394.24 223.68 394.24 C 225.14 394.24 226.32 395.42 226.32 396.88 Z" fill="none" stroke="black" stroke-width="1.8" stroke-linecap="round" stroke-linejoin="round"/>
<path d="M 230.16 403.36 C 230.16 404.02 229.62 404.56 228.96 404.56 C 228.3 404.56 227.76 404.02 227.76 403.36 C 227.76 402.7 228.3 402.16 228.96 402.16 C 229.62 402.16 230.16 402.7 230.16 403.36 Z" fill="none" stroke="black" stroke-width="1.8" stroke-linecap="round" stroke-linejoin="round"/>
<path d="M 273.84 399.52 C 273.84 406.94 268.9 412.96 262.8 412.96 C 256.7 412.96 251.76 406.94 251.76 399.52 C 251.76 392.1 256.7 386.08 262.8 386.08 C 268.9 386.08 273.84 392.1 273.84 399.52 Z" fill="none" stroke="black" stroke-width="2.4" stroke-linecap="round" stroke-linejoin="round"/>
<path d="M 270.24 401.44 C 270.24 405.55 266.91 408.88 262.8 408.88 C 258.69 408.88 255.36 405.55 255.36 401.44 C 255.36 397.33 258.69 394 262.8 394 C 266.91 394 270.24 397.33 270.24 401.44 Z" fill="none" stroke="black" stroke-width="1.8" stroke-linecap="round" stroke-linejoin="round"/>
<path d="M 268.56 396.88 C 268.56 398.34 267.38 399.52 265.92 399.52 C 264.46 399.52 263.28 398.34 263.28 396.88 C 263.28 395.42 264.46 394.24 265.92 394.24 C 267.38 394.24 268.56 395.42 268.56 396.88 Z" fill="none" stroke="black" stroke-width="1.8" stroke-linecap="round" stroke-linejoin="round"/>
<path d="M 261.84 403.36 C 261.84 404.02 261.3 404.56 260.64 404.56 C 259.98 404.56 259.44 404.02 259.44 403.36 C 259.44 402.7 259.98 402.16 260.64 402.16 C 261.3 402.16 261.84 402.7 261.84 403.36 Z" fill="none" stroke="black" stroke-width="1.8" stroke-linecap="round" stroke-linejoin="round"/>
<path d="M 264.8 419.52 C 264.8 428.36 255.85 435.52 244.8 435.52 C 233.75 435.52 224.8 428.36 224.8 419.52 C 224.8 410.68 233.75 403.52 244.8 403.52 C 255.85 403.52 264.8 410.68 264.8 419.52 Z" fill="none" stroke="black" stroke-width="2.4" stroke-linecap="round" stroke-linejoin="round"/>
<path d="M 294.8 473.52 C 294.8 502.24 272.41 525.52 244.8 525.52 C 217.19 525.52 194.8 502.24 194.8 473.52 C 194.8 444.8 217.19 421.52 244.8 421.52 C 272.41 421.52 294.8 444.8 294.8 473.52 Z" fill="none" stroke="black" stroke-width="3.4" stroke-linecap="round" stroke-linejoin="round"/>
<path d="M 413.2 397.52 C 413.2 422.93 392.61 443.52 367.2 443.52 C 341.79 443.52 321.2 422.93 321.2 397.52 C 321.2 372.11 341.79 351.52 367.2 351.52 C 392.61 351.52 413.2 372.11 413.2 397.52 Z" fill="none" stroke="black" stroke-width="3.4" stroke-linecap="round" stroke-linejoin="round"/>
<path d="M 321.2 392.92 L 335.2 351.52 L 351.2 388.32 Z" fill="none" stroke="black" stroke-width="3.4" stroke-linecap="round" stroke-linejoin="round"/>
<path d="M 328.7 391.77 L 335.2 351.52 L 343.7 389.47" fill="none" stroke="black" stroke-width="1.8" stroke-linecap="round" stroke-linejoin="round"/>
<path d="M 383.2 388.32 L 399.2 351.52 L 413.2 392.92 Z" fill="none" stroke="black" stroke-width="3.4" stroke-linecap="round" stroke-linejoin="round"/>
<path d="M 390.7 389.47 L 399.2 351.52 L 405.7 391.77" fill="none" stroke="black" stroke-width="1.8" stroke-linecap="round" stroke-linejoin="round"/>
<path d="M 360.32 397.52 C 360.32 404.32 355.79 409.84 350.2 409.84 C 344.61 409.84 340.08 404.32 340.08 397.52 C 340.08 390.72 344.61 385.2 350.2 385.2 C 355.79 385.2 360.32 390.72 360.32 397.52 Z" fill="none" stroke="black" stroke-width="2.4" stroke-linecap="round" stroke-linejoin="round"/>
<path d="M 357.02 399.28 C 357.02 403.05 353.97 406.1 350.2 406.1 C 346.43 406.1 343.38 403.05 343.38 399.28 C 343.38 395.51 346.43 392.46 350.2 392.46 C 353.97 392.46 357.02 395.51 357.02 399.28 Z" fill="none" stroke="black" stroke-width="1.8" stroke-linecap="round" stroke-linejoin="round"/>
<path d="M 349.76 395.1 C 349.76 396.44 348.68 397.52 347.34 397.52 C 346 397.52 344.92 396.44 344.92 395.1 C 344.92 393.76 346 392.68 347.34 392.68 C 348.68 392.68 349.76 393.76 349.76 395.1 Z" fill="none" stroke="black" stroke-width="1.8" stroke-linecap="round" stroke-linejoin="round"/>
<path d="M 353.28 401.04 C 353.28 401.65 352.79 402.14 352.18 402.14 C 351.57 402.14 351.08 401.65 351.08 401.04 C 351.08 400.43 351.57 399.94 352.18 399.94 C 352.79 399.94 353.28 400.43 353.28 401.04 Z" fill="none" stroke="black" stroke-width="1.8" stroke-linecap="round" stroke-linejoin="round"/>
<path d="M 394.32 397.52 C 394.32 404.32 389.79 409.84 384.2 409.84 C 378.61 409.84 374.08 404.32 374.08 397.52 C 374.08 390.72 378.61 385.2 384.2 385.2 C 389.79 385.2 394.32 390.72 394.32 397.52 Z" fill="none" stroke="black" stroke-width="2.4" stroke-linecap="round" stroke-linejoin="round"/>
<path d="M 391.02 399.28 C 391.02 403.05 387.97 406.1 384.2 406.1 C 380.43 406.1 377.38 403.05 377.38 399.28 C 377.38 395.51 380.43 392.46 384.2 392.46 C 387.97 392.46 391.02 395.51 391.02 399.28 Z" fill="none" stroke="black" stroke-width="1.8" stroke-linecap="round" stroke-linejoin="round"/>
<path d="M 389.48 395.1 C 389.48 396.44 388.4 397.52 387.06 397.52 C 385.72 397.52 384.64 396.44 384.64 395.1 C 384.64 393.76 385.72 392.68 387.06 392.68 C 388.4 392.68 389.48 393.76 389.48 395.1 Z" fill="none" stroke="black" stroke-width="1.8" stroke-linecap="round" stroke-linejoin="round"/>
<path d="M 383.32 401.04 C 383.32 401.65 382.83 402.14 382.22 402.14 C 381.61 402.14 381.12 401.65 381.12 401.04 C 381.12 400.43 381.61 399.94 382.22 399.94 C 382.83 399.94 383.32 400.43 383.32 401.04 Z" fill="none" stroke="black" stroke-width="1.8" stroke-linecap="round" stroke-linejoin="round"/>
<path d="M 353.2 415.92 C 361.6 426.42 372.8 426.42 381.2 415.92" fill="none" stroke="black" stroke-width="2.4" stroke-linecap="round" stroke-linejoin="round"/>
<path d="M 411.2 463.52 C 411.2 490.03 391.5 511.52 367.2 511.52 C 342.9 511.52 323.2 490.03 323.2 463.52 C 323.2 437.01 342.9 415.52 367.2 415.52 C 391.5 415.52 411.2 437.01 411.2 463.52 Z" fill="none" stroke="black" stroke-width="3.4" stroke-linecap="round" stroke-linejoin="round"/>
<path d="M 535.6 401.52 C 535.6 426.93 515.01 447.52 489.6 447.52 C 464.19 447.52 443.6 426.93 443.6 401.52 C 443.6 376.11 464.19 355.52 489.6 355.52 C 515.01 355.52 535.6 376.11 535.6 401.52 Z" fill="none" stroke="black" stroke-width="3.4" stroke-linecap="round" stroke-linejoin="round"/>
<path d="M 445.6 394.62 L 457.6 355.52 L 475.6 390.02 Z" fill="none" stroke="black" stroke-width="3.4" stroke-linecap="round" stroke-linejoin="round"/>
<path d="M 453.1 393.47 L 457.6 355.52 L 468.1 391.17" fill="none" stroke="black" stroke-width="1.8" stroke-linecap="round" stroke-linejoin="round"/>
<path d="M 503.6 390.02 L 521.6 355.52 L 533.6 394.62 Z" fill="none" stroke="black" stroke-width="3.4" stroke-linecap="round" stroke-linejoin="round"/>
<path d="M 511.1 391.17 L 521.6 355.52 L 526.1 393.47" fill="none" stroke="black" stroke-width="1.8" stroke-linecap="round" stroke-linejoin="round"/>
<path d="M 482.72 401.52 C 482.72 408.32 478.19 413.84 472.6 413.84 C 467.01 413.84 462.48 408.32 462.48 401.52 C 462.48 394.72 467.01 389.2 472.6 389.2 C 478.19 389.2 482.72 394.72 482.72 401.52 Z" fill="none" stroke="black" stroke-width="2.4" stroke-linecap="round" stroke-linejoin="round"/>
<path d="M 479.42 403.28 C 479.42 407.05 476.37 410.1 472.6 410.1 C 468.83 410.1 465.78 407.05 465.78 403.28 C 465.78 399.51 468.83 396.46 472.6 396.46 C 476.37 396.46 479.42 399.51 479.42 403.28 Z" fill="none" stroke="black" stroke-width="1.8" stroke-linecap="round" stroke-linejoin="round"/>
<path d="M 472.16 399.1 C 472.16 400.44 471.08 401.52 469.74 401.52 C 468.4 401.52 467.32 400.44 467.32 399.1 C 467.32 397.76 468.4 396.68 469.74 396.68 C 471.08 396.68 472.16 397.76 472.16 399.1 Z" fill="none" stroke="black" stroke-width="1.8" stroke-linecap="round" stroke-linejoin="round"/>
<path d="M 475.68 405.04 C 475.68 405.65 475.19 406.14 474.58 406.14 C 473.97 406.14 473.48 405.65 473.48 405.04 C 473.48 404.43 473.97 403.94 474.58 403.94 C 475.19 403.94 475.68 404.43 475.68 405.04 Z" fill="none" stroke="black" stroke-width="1.8" stroke-linecap="round" stroke-linejoin="round"/>
<path d="M 516.72 401.52 C 516.72 408.32 512.19 413.84 506.6 413.84 C 501.01 413.84 496.48 408.32 496.48 401.52 C 496.48 394.72 501.01 389.2 506.6 389.2 C 512.19 389.2 516.72 394.72 516.72 401.52 Z" fill="none" stroke="black" stroke-width="2.4" stroke-linecap="round" stroke-linejoin="round"/>
<path d="M 513.42 403.28 C 513.42 407.05 510.37 410.1 506.6 410.1 C 502.83 410.1 499.78 407.05 499.78 403.28 C 499.78 399.51 502.83 396.46 506.6 396.46 C 510.37 396.46 513.42 399.51 513.42 403.28 Z" fill="none" stroke="black" stroke-width="1.8" stroke-linecap="round" stroke-linejoin="round"/>
<path d="M 511.88 399.1 C 511.88 400.44 510.8 401.52 509.46 401.52 C 508.12 401.52 507.04 400.44 507.04 399.1 C 507.04 397.76 508.12 396.68 509.46 396.68 C 510.8 396.68 511.88 397.76 511.88 399.1 Z" fill="none" stroke="black" stroke-width="1.8" stroke-linecap="round" stroke-linejoin="round"/>
<path d="M 505.72 405.04 C 505.72 405.65 505.23 406.14 504.62 406.14 C 504.01 406.14 503.52 405.65 503.52 405.04 C 503.52 404.43 504.01 403.94 504.62 403.94 C 505.23 403.94 505.72 404.43 505.72 405.04 Z" fill="none" stroke="black" stroke-width="1.8" stroke-linecap="round" stroke-linejoin="round"/>
<path d="M 489.6 415.32 L 481.6 424.52 L 497.6 424.52 Z" fill="none" stroke="black" stroke-width="2.4" stroke-linecap="round" stroke-linejoin="round"/>
<path d="M 533.6 467.52 C 533.6 494.03 513.9 515.52 489.6 515.52 C 465.3 515.52 445.6 494.03 445.6 467.52 C 445.6 441.01 465.3 419.52 489.6 419.52 C 513.9 419.52 533.6 441.01 533.6 467.52 Z" fill="none" stroke="black" stroke-width="3.4" stroke-linecap="round" stroke-linejoin="round"/>
<path d="M 70 158.4 L 83.11 165.4 L 96.22 170.52 L 109.33 172.4 L 122.44 170.52 L 135.56 165.4 L 148.67 158.4 L 161.78 151.4 L 174.89 146.28 L 188 144.4 L 201.11 146.28 L 214.22 151.4 L 227.33 158.4 L 240.44 165.4 L 253.56 170.52 L 266.67 172.4 L 279.78 170.52 L 292.89 165.4 L 306 158.4 L 319.11 151.4 L 332.22 146.28 L 345.33 144.4 L 358.44 146.28 L 371.56 151.4 L 384.67 158.4 L 397.78 165.4 L 410.89 170.52 L 424 172.4 L 437.11 170.52 L 450.22 165.4 L 463.33 158.4 L 476.44 151.4 L 489.56 146.28 L 502.67 144.4 L 515.78 146.28 L 528.89 151.4 L 542 158.4" fill="none" stroke="black" stroke-width="2.4" stroke-linecap="round" stroke-linejoin="round"/>
<path d="M 78 152.4 L 102 152.4 L 90 176.4 Z" fill="none" stroke="black" stroke-width="1.8" stroke-linecap="round" stroke-linejoin="round"/>
<path d="M 150 172.4 L 174 172.4 L 162 196.4 Z" fill="none" stroke="black" stroke-width="1.8" stroke-linecap="round" stroke-linejoin="round"/>
<path d="M 222 152.4 L 246 152.4 L 234 176.4 Z" fill="none" stroke="black" stroke-width="1.8" stroke-linecap="round" stroke-linejoin="round"/>
<path d="M 294 172.4 L 318 172.4 L 306 196.4 Z" fill="none" stroke="black" stroke-width="1.8" stroke-linecap="round" stroke-linejoin="round"/>
<path d="M 366 152.4 L 390 152.4 L 378 176.4 Z" fill="none" stroke="black" stroke-width="1.8" stroke-linecap="round" stroke-linejoin="round"/>
<path d="M 438 172.4 L 462 172.4 L 450 196.4 Z" fill="none" stroke="black" stroke-width="1.8" stroke-linecap="round" stroke-linejoin="round"/>
<path d="M 510 152.4 L 534 152.4 L 522 176.4 Z" fill="none" stroke="black" stroke-width="1.8" stroke-linecap="round" stroke-linejoin="round"/>
<path d="M 332 95.04 C 332 109.4 320.36 121.04 306 121.04 C 291.64 121.04 280 109.4 280 95.04 C 280 80.68 291.64 69.04 306 69.04 C 320.36 69.04 332 80.68 332 95.04 Z" fill="none" stroke="black" stroke-width="2.4" stroke-linecap="round" stroke-linejoin="round"/>
<path d="M 337.2 95.04 L 350.2 95.04" fill="none" stroke="black" stroke-width="1.8" stroke-linecap="round" stroke-linejoin="round"/>
<path d="M 328.06 117.1 L 337.25 126.29" fill="none" stroke="black" stroke-width="1.8" stroke-linecap="round" stroke-linejoin="round"/>
<path d="M 306 126.24 L 306 139.24" fill="none" stroke="black" stroke-width="1.8" stroke-linecap="round" stroke-linejoin="round"/>
<path d="M 283.94 117.1 L 274.75 126.29" fill="none" stroke="black" stroke-width="1.8" stroke-linecap="round" stroke-linejoin="round"/>
<path d="M 274.8 95.04 L 261.8 95.04" fill="none" stroke="black" stroke-width="1.8" stroke-linecap="round" stroke-linejoin="round"/>
<path d="M 283.94 72.98 L 274.75 63.79" fill="none" stroke="black" stroke-width="1.8" stroke-linecap="round" stroke-linejoin="round"/>
<path d="M 306 63.84 L 306 50.84" fill="none" stroke="black" stroke-width="1.8" stroke-linecap="round" stroke-linejoin="round"/>
<path d="M 328.06 72.98 L 337.25 63.79" fill="none" stroke="black" stroke-width="1.8" stroke-linecap="round" stroke-linejoin="round"/>
<path d="M 67.67 670 L 73.67 654 L 79.67 670" fill="none" stroke="black" stroke-width="1.8" stroke-linecap="round" stroke-linejoin="round"/>
<path d="M 95 670 L 101 654 L 107 670" fill="none" stroke="black" stroke-width="1.8" stroke-linecap="round" stroke-linejoin="round"/>
<path d="M 122.33 670 L 128.33 654 L 134.33 670" fill="none" stroke="black" stroke-width="1.8" stroke-linecap="round" stroke-linejoin="round"/>
<path d="M 149.67 670 L 155.67 654 L 161.67 670" fill="none" stroke="black" stroke-width="1.8" stroke-linecap="round" stroke-linejoin="round"/>
<path d="M 177 670 L 183 654 L 189 670" fill="none" stroke="black" stroke-width="1.8" stroke-linecap="round" stroke-linejoin="round"/>
<path d="M 204.33 670 L 210.33 654 L 216.33 670" fill="none" stroke="black" stroke-width="1.8" stroke-linecap="round" stroke-linejoin="round"/>
<path d="M 231.67 670 L 237.67 654 L 243.67 670" fill="none" stroke="black" stroke-width="1.8" stroke-linecap="round" stroke-linejoin="round"/>
<path d="M 259 670 L 265 654 L 271 670" fill="none" stroke="black" stroke-width="1.8" stroke-linecap="round" stroke-linejoin="round"/>
<path d="M 286.33 670 L 292.33 654 L 298.33 670" fill="none" stroke="black" stroke-width="1.8" stroke-linecap="round" stroke-linejoin="round"/>
<path d="M 313.67 670 L 319.67 654 L 325.67 670" fill="none" stroke="black" stroke-width="1.8" stroke-linecap="round" stroke-linejoin="round"/>
<path d="M 341 670 L 347 654 L 353 670" fill="none" stroke="black" stroke-width="1.8" stroke-linecap="round" stroke-linejoin="round"/>
<path d="M 368.33 670 L 374.33 654 L 380.33 670" fill="none" stroke="black" stroke-width="1.8" stroke-linecap="round" stroke-linejoin="round"/>
<path d="M 395.67 670 L 401.67 654 L 407.67 670" fill="none" stroke="black" stroke-width="1.8" stroke-linecap="round" stroke-linejoin="round"/>
<path d="M 423 670 L 429 654 L 435 670" fill="none" stroke="black" stroke-width="1.8" stroke-linecap="round" stroke-linejoin="round"/>
<path d="M 450.33 670 L 456.33 654 L 462.33 670" fill="none" stroke="black" stroke-width="1.8" stroke-linecap="round" stroke-linejoin="round"/>
<path d="M 477.67 670 L 483.67 654 L 489.67 670" fill="none" stroke="black" stroke-width="1.8" stroke-linecap="round" stroke-linejoin="round"/>
<path d="M 505 670 L 511 654 L 517 670" fill="none" stroke="black" stroke-width="1.8" stroke-linecap="round" stroke-linejoin="round"/>
<path d="M 532.33 670 L 538.33 654 L 544.33 670" fill="none" stroke="black" stroke-width="1.8" stroke-linecap="round" stroke-linejoin="round"/>
<path d="M 81.84 633.6 C 81.84 638.24 78.08 642 73.44 642 C 68.8 642 65.04 638.24 65.04 633.6 C 65.04 628.96 68.8 625.2 73.44 625.2 C 78.08 625.2 81.84 628.96 81.84 633.6 Z" fill="none" stroke="black" stroke-width="2.4" stroke-linecap="round" stroke-linejoin="round"/>
<path d="M 83.52 609.6 C 83.52 615.17 79.01 619.68 73.44 619.68 C 67.87 619.68 63.36 615.17 63.36 609.6 C 63.36 604.03 67.87 599.52 73.44 599.52 C 79.01 599.52 83.52 604.03 83.52 609.6 Z" fill="none" stroke="black" stroke-width="2.4" stroke-linecap="round" stroke-linejoin="round"/>
<path d="M 106.35 626.18 C 106.35 631.75 101.83 636.26 96.27 636.26 C 90.7 636.26 86.19 631.75 86.19 626.18 C 86.19 620.62 90.7 616.1 96.27 616.1 C 101.83 616.1 106.35 620.62 106.35 626.18 Z" fill="none" stroke="black" stroke-width="2.4" stroke-linecap="round" stroke-linejoin="round"/>
<path d="M 97.63 653.02 C 97.63 658.58 93.11 663.1 87.55 663.1 C 81.98 663.1 77.47 658.58 77.47 653.02 C 77.47 647.45 81.98 642.94 87.55 642.94 C 93.11 642.94 97.63 647.45 97.63 653.02 Z" fill="none" stroke="black" stroke-width="2.4" stroke-linecap="round" stroke-linejoin="round"/>
<path d="M 69.41 653.02 C 69.41 658.58 64.9 663.1 59.33 663.1 C 53.77 663.1 49.25 658.58 49.25 653.02 C 49.25 647.45 53.77 642.94 59.33 642.94 C 64.9 642.94 69.41 647.45 69.41 653.02 Z" fill="none" stroke="black" stroke-width="2.4" stroke-linecap="round" stroke-linejoin="round"/>
<path d="M 60.69 626.18 C 60.69 631.75 56.18 636.26 50.61 636.26 C 45.05 636.26 40.53 631.75 40.53 626.18 C 40.53 620.62 45.05 616.1 50.61 616.1 C 56.18 616.1 60.69 620.62 60.69 626.18 Z" fill="none" stroke="black" stroke-width="2.4" stroke-linecap="round" stroke-linejoin="round"/>
<path d="M 314.4 633.6 C 314.4 638.24 310.64 642 306 642 C 301.36 642 297.6 638.24 297.6 633.6 C 297.6 628.96 301.36 625.2 306 625.2 C 310.64 625.2 314.4 628.96 314.4 633.6 Z" fill="none" stroke="black" stroke-width="2.4" stroke-linecap="round" stroke-linejoin="round"/>
<path d="M 316.08 609.6 C 316.08 615.17 311.57 619.68 306 619.68 C 300.43 619.68 295.92 615.17 295.92 609.6 C 295.92 604.03 300.43 599.52 306 599.52 C 311.57 599.52 316.08 604.03 316.08 609.6 Z" fill="none" stroke="black" stroke-width="2.4" stroke-linecap="round" stroke-linejoin="round"/>
<path d="M 338.91 626.18 C 338.91 631.75 334.39 636.26 328.83 636.26 C 323.26 636.26 318.75 631.75 318.75 626.18 C 318.75 620.62 323.26 616.1 328.83 616.1 C 334.39 616.1 338.91 620.62 338.91 626.18 Z" fill="none" stroke="black" stroke-width="2.4" stroke-linecap="round" stroke-linejoin="round"/>
<path d="M 330.19 653.02 C 330.19 658.58 325.67 663.1 320.11 663.1 C 314.54 663.1 310.03 658.58 310.03 653.02 C 310.03 647.45 314.54 642.94 320.11 642.94 C 325.67 642.94 330.19 647.45 330.19 653.02 Z" fill="none" stroke="black" stroke-width="2.4" stroke-linecap="round" stroke-linejoin="round"/>
<path d="M 301.97 653.02 C 301.97 658.58 297.46 663.1 291.89 663.1 C 286.33 663.1 281.81 658.58 281.81 653.02 C 281.81 647.45 286.33 642.94 291.89 642.94 C 297.46 642.94 301.97 647.45 301.97 653.02 Z" fill="none" stroke="black" stroke-width="2.4" stroke-linecap="round" stroke-linejoin="round"/>
<path d="M 293.25 626.18 C 293.25 631.75 288.74 636.26 283.17 636.26 C 277.61 636.26 273.09 631.75 273.09 626.18 C 273.09 620.62 277.61 616.1 283.17 616.1 C 288.74 616.1 293.25 620.62 293.25 626.18 Z" fill="none" stroke="black" stroke-width="2.4" stroke-linecap="round" stroke-linejoin="round"/>
<path d="M 559.2 633.6 C 559.2 638.24 555.44 642 550.8 642 C 546.16 642 542.4 638.24 542.4 633.6 C 542.4 628.96 546.16 625.2 550.8 625.2 C 555.44 625.2 559.2 628.96 559.2 633.6 Z" fill="none" stroke="black" stroke-width="2.4" stroke-linecap="round" stroke-linejoin="round"/>
<path d="M 560.88 609.6 C 560.88 615.17 556.37 619.68 550.8 619.68 C 545.23 619.68 540.72 615.17 540.72 609.6 C 540.72 604.03 545.23 599.52 550.8 599.52 C 556.37 599.52 560.88 604.03 560.88 609.6 Z" fill="none" stroke="black" stroke-width="2.4" stroke-linecap="round" stroke-linejoin="round"/>
<path d="M 583.71 626.18 C 583.71 631.75 579.19 636.26 573.63 636.26 C 568.06 636.26 563.55 631.75 563.55 626.18 C 563.55 620.62 568.06 616.1 573.63 616.1 C 579.19 616.1 583.71 620.62 583.71 626.18 Z" fill="none" stroke="black" stroke-width="2.4" stroke-linecap="round" stroke-linejoin="round"/>
<path d="M 574.99 653.02 C 574.99 658.58 570.47 663.1 564.91 663.1 C 559.34 663.1 554.83 658.58 554.83 653.02 C 554.83 647.45 559.34 642.94 564.91 642.94 C 570.47 642.94 574.99 647.45 574.99 653.02 Z" fill="none" stroke="black" stroke-width="2.4" stroke-linecap="round" stroke-linejoin="round"/>
<path d="M 546.77 653.02 C 546.77 658.58 542.26 663.1 536.69 663.1 C 531.13 663.1 526.61 658.58 526.61 653.02 C 526.61 647.45 531.13 642.94 536.69 642.94 C 542.26 642.94 546.77 647.45 546.77 653.02 Z" fill="none" stroke="black" stroke-width="2.4" stroke-linecap="round" stroke-linejoin="round"/>
<path d="M 538.05 626.18 C 538.05 631.75 533.54 636.26 527.97 636.26 C 522.41 636.26 517.89 631.75 517.89 626.18 C 517.89 620.62 522.41 616.1 527.97 616.1 C 533.54 616.1 538.05 620.62 538.05 626.18 Z" fill="none" stroke="black" stroke-width="2.4" stroke-linecap="round" stroke-linejoin="round"/>
<path d="M 200.7 762.88 L 200.7 752.88 L 205.7 758.88 L 210.7 752.88 L 210.7 762.88" fill="none" stroke="black" stroke-width="1.3" stroke-linecap="round" stroke-linejoin="round"/>
<path d="M 222.5 752.88 L 212.5 752.88 L 212.5 762.88 L 222.5 762.88" fill="none" stroke="black" stroke-width="1.3" stroke-linecap="round" stroke-linejoin="round"/>
<path d="M 212.5 757.88 L 219.5 757.88" fill="none" stroke="black" stroke-width="1.3" stroke-linecap="round" stroke-linejoin="round"/>
<path d="M 224.3 762.88 L 229.3 752.88 L 234.3 762.88" fill="none" stroke="black" stroke-width="1.3" stroke-linecap="round" stroke-linejoin="round"/>
<path d="M 225.8 758.88 L 232.8 758.88" fill="none" stroke="black" stroke-width="1.3" stroke-linecap="round" stroke-linejoin="round"/>
<path d="M 236.1 762.88 L 236.1 752.88 L 242.1 752.88 L 246.1 756.88 L 246.1 758.88 L 242.1 762.88 L 236.1 762.88" fill="none" stroke="black" stroke-width="1.3" stroke-linecap="round" stroke-linejoin="round"/>
<path d="M 252.9 752.88 L 247.9 755.88 L 247.9 759.88 L 252.9 762.88 L 257.9 759.88 L 257.9 755.88 L 252.9 752.88" fill="none" stroke="black" stroke-width="1.3" stroke-linecap="round" stroke-linejoin="round"/>
<path d="M 259.7 752.88 L 262.2 762.88 L 264.7 756.88 L 267.2 762.88 L 269.7 752.88" fill="none" stroke="black" stroke-width="1.3" stroke-linecap="round" stroke-linejoin="round"/>
<path d="M 293.3 754.38 L 288.3 752.88 L 283.3 755.88 L 283.3 759.88 L 288.3 762.88 L 293.3 761.38" fill="none" stroke="black" stroke-width="1.3" stroke-linecap="round" stroke-linejoin="round"/>
<path d="M 305.1 752.88 L 295.1 752.88 L 295.1 762.88 L 305.1 762.88" fill="none" stroke="black" stroke-width="1.3" stroke-linecap="round" stroke-linejoin="round"/>
<path d="M 295.1 757.88 L 302.1 757.88" fill="none" stroke="black" stroke-width="1.3" stroke-linecap="round" stroke-linejoin="round"/>
<path d="M 306.9 752.88 L 306.9 762.88 L 316.9 762.88" fill="none" stroke="black" stroke-width="1.3" stroke-linecap="round" stroke-linejoin="round"/>
<path d="M 328.7 752.88 L 318.7 752.88 L 318.7 762.88 L 328.7 762.88" fill="none" stroke="black" stroke-width="1.3" stroke-linecap="round" stroke-linejoin="round"/>
<path d="M 318.7 757.88 L 325.7 757.88" fill="none" stroke="black" stroke-width="1.3" stroke-linecap="round" stroke-linejoin="round"/>
<path d="M 330.5 762.88 L 330.5 752.88 L 337.5 752.88 L 339.5 754.38 L 337.5 757.38 L 330.5 757.38" fill="none" stroke="black" stroke-width="1.3" stroke-linecap="round" stroke-linejoin="round"/>
<path d="M 330.5 757.38 L 338 757.38 L 340 759.38 L 338 762.88 L 330.5 762.88" fill="none" stroke="black" stroke-width="1.3" stroke-linecap="round" stroke-linejoin="round"/>
<path d="M 342.3 762.88 L 342.3 752.88 L 349.3 752.88 L 351.8 755.38 L 349.3 757.88 L 342.3 757.88" fill="none" stroke="black" stroke-width="1.3" stroke-linecap="round" stroke-linejoin="round"/>
<path d="M 346.3 757.88 L 352.3 762.88" fill="none" stroke="black" stroke-width="1.3" stroke-linecap="round" stroke-linejoin="round"/>
<path d="M 354.1 762.88 L 359.1 752.88 L 364.1 762.88" fill="none" stroke="black" stroke-width="1.3" stroke-linecap="round" stroke-linejoin="round"/>
<path d="M 355.6 758.88 L 362.6 758.88" fill="none" stroke="black" stroke-width="1.3" stroke-linecap="round" stroke-linejoin="round"/>
<path d="M 365.9 752.88 L 375.9 752.88" fill="none" stroke="black" stroke-width="1.3" stroke-linecap="round" stroke-linejoin="round"/>
<path d="M 370.9 752.88 L 370.9 762.88" fill="none" stroke="black" stroke-width="1.3" stroke-linecap="round" stroke-linejoin="round"/>
<path d="M 382.7 762.88 L 382.7 752.88" fill="none" stroke="black" stroke-width="1.3" stroke-linecap="round" stroke-linejoin="round"/>
<path d="M 379.7 752.88 L 385.7 752.88" fill="none" stroke="black" stroke-width="1.3" stroke-linecap="round" stroke-linejoin="round"/>
<path d="M 379.7 762.88 L 385.7 762.88" fill="none" stroke="black" stroke-width="1.3" stroke-linecap="round" stroke-linejoin="round"/>
<path d="M 394.5 752.88 L 389.5 755.88 L 389.5 759.88 L 394.5 762.88 L 399.5 759.88 L 399.5 755.88 L 394.5 752.88" fill="none" stroke="black" stroke-width="1.3" stroke-linecap="round" stroke-linejoin="round"/>
<path d="M 401.3 762.88 L 401.3 752.88 L 411.3 762.88 L 411.3 752.88" fill="none" stroke="black" stroke-width="1.3" stroke-linecap="round" stroke-linejoin="round"/>
<path d="M 301.32 776.88 L 301.32 764.88 L 292.92 772.68 L 304.92 772.68" fill="none" stroke="black" stroke-width="1.5" stroke-linecap="round" stroke-linejoin="round"/>
<path d="M 307.08 767.28 L 313.08 764.88 L 317.88 767.28 L 317.88 769.68 L 307.08 776.88 L 319.08 776.88" fill="none" stroke="black" stroke-width="1.5" stroke-linecap="round" stroke-linejoin="round"/>
</svg>