<svg xmlns="http://www.w3.org/2000/svg" width="612" height="792" viewBox="0 0 612 792">
<rect x="0" y="0" width="612" height="792" fill="white"/>
<path d="M 35.8 19.8 L 576.2 19.8 C 585.04 19.8 592.2 26.96 592.2 35.8 L 592.2 756.2 C 592.2 765.04 585.04 772.2 576.2 772.2 L 35.8 772.2 C 26.96 772.2 19.8 765.04 19.8 756.2 L 19.8 35.8 C 19.8 26.96 26.96 19.8 35.8 19.8 Z" fill="none" stroke="black" stroke-width="1.4" stroke-linecap="round" stroke-linejoin="round"/>
<path d="M 218.6 493.12 C 218.6 598 393.4 598 393.4 493.12 C 393.4 405.72 218.6 405.72 218.6 493.12 Z" fill="none" stroke="black" stroke-width="3.4" stroke-linecap="round" stroke-linejoin="round"/>
<path d="M 398 364.32 C 398 415.13 356.81 456.32 306 456.32 C 255.19 456.32 214 415.13 214 364.32 C 214 313.51 255.19 272.32 306 272.32 C 356.81 272.32 398 313.51 398 364.32 Z" fill="none" stroke="black" stroke-width="3.4" stroke-linecap="round" stroke-linejoin="round"/>
<path d="M 263.68 290.72 C 263.68 308 249.68 322 232.4 322 C 215.12 322 201.12 308 201.12 290.72 C 201.12 273.44 215.12 259.44 232.4 259.44 C 249.68 259.44 263.68 273.44 263.68 290.72 Z" fill="none" stroke="black" stroke-width="3.4" stroke-linecap="round" stroke-linejoin="round"/>
<path d="M 249.6 290.72 C 249.6 300.22 241.9 307.92 232.4 307.92 C 222.9 307.92 215.2 300.22 215.2 290.72 C 215.2 281.22 222.9 273.52 232.4 273.52 C 241.9 273.52 249.6 281.22 249.6 290.72 Z" fill="none" stroke="black" stroke-width="1.8" stroke-linecap="round" stroke-linejoin="round"/>
<path d="M 410.88 290.72 C 410.88 308 396.88 322 379.6 322 C 362.32 322 348.32 308 348.32 290.72 C 348.32 273.44 362.32 259.44 379.6 259.44 C 396.88 259.44 410.88 273.44 410.88 290.72 Z" fill="none" stroke="black" stroke-width="3.4" stroke-linecap="round" stroke-linejoin="round"/>
<path d="M 396.8 290.72 C 396.8 300.22 389.1 307.92 379.6 307.92 C 370.1 307.92 362.4 300.22 362.4 290.72 C 362.4 281.22 370.1 273.52 379.6 273.52 C 389.1 273.52 396.8 281.22 396.8 290.72 Z" fill="none" stroke="black" stroke-width="1.8" stroke-linecap="round" stroke-linejoin="round"/>
<path d="M 294.96 364.32 C 294.96 382.61 283.43 397.44 269.2 397.44 C 254.97 397.44 243.44 382.61 243.44 364.32 C 243.44 346.03 254.97 331.2 269.2 331.2 C 283.43 331.2 294.96 346.03 294.96 364.32 Z" fill="none" stroke="black" stroke-width="2.4" stroke-linecap="round" stroke-linejoin="round"/>
<path d="M 368.56 364.32 C 368.56 382.61 357.03 397.44 342.8 397.44 C 328.57 397.44 317.04 382.61 317.04 364.32 C 317.04 346.03 328.57 331.2 342.8 331.2 C 357.03 331.2 368.56 346.03 368.56 364.32 Z" fill="none" stroke="black" stroke-width="2.4" stroke-linecap="round" stroke-linejoin="round"/>
<path d="M 282.74 364.32 C 282.74 373.43 276.68 380.81 269.2 380.81 C 261.72 380.81 255.66 373.43 255.66 364.32 C 255.66 355.21 261.72 347.83 269.2 347.83 C 276.68 347.83 282.74 355.21 282.74 364.32 Z" fill="none" stroke="black" stroke-width="2.4" stroke-linecap="round" stroke-linejoin="round"/>
<path d="M 278.33 366.68 C 278.33 371.72 274.24 375.8 269.2 375.8 C 264.16 375.8 260.07 371.72 260.07 366.68 C 260.07 361.63 264.16 357.55 269.2 357.55 C 274.24 357.55 278.33 361.63 278.33 366.68 Z" fill="none" stroke="black" stroke-width="1.8" stroke-linecap="round" stroke-linejoin="round"/>
<path d="M 268.61 361.08 C 268.61 362.87 267.16 364.32 265.37 364.32 C 263.58 364.32 262.13 362.87 262.13 361.08 C 262.13 359.29 263.58 357.84 265.37 357.84 C 267.16 357.84 268.61 359.29 268.61 361.08 Z" fill="none" stroke="black" stroke-width="1.8" stroke-linecap="round" stroke-linejoin="round"/>
<path d="M 273.32 369.03 C 273.32 369.84 272.66 370.5 271.85 370.5 C 271.04 370.5 270.38 369.84 270.38 369.03 C 270.38 368.22 271.04 367.56 271.85 367.56 C 272.66 367.56 273.32 368.22 273.32 369.03 Z" fill="none" stroke="black" stroke-width="1.8" stroke-linecap="round" stroke-linejoin="round"/>
<path d="M 356.34 364.32 C 356.34 373.43 350.28 380.81 342.8 380.81 C 335.32 380.81 329.26 373.43 329.26 364.32 C 329.26 355.21 335.32 347.83 342.8 347.83 C 350.28 347.83 356.34 355.21 356.34 364.32 Z" fill="none" stroke="black" stroke-width="2.4" stroke-linecap="round" stroke-linejoin="round"/>
<path d="M 351.93 366.68 C 351.93 371.72 347.84 375.8 342.8 375.8 C 337.76 375.8 333.67 371.72 333.67 366.68 C 333.67 361.63 337.76 357.55 342.8 357.55 C 347.84 357.55 351.93 361.63 351.93 366.68 Z" fill="none" stroke="black" stroke-width="1.8" stroke-linecap="round" stroke-linejoin="round"/>
<path d="M 349.87 361.08 C 349.87 362.87 348.42 364.32 346.63 364.32 C 344.84 364.32 343.39 362.87 343.39 361.08 C 343.39 359.29 344.84 357.84 346.63 357.84 C 348.42 357.84 349.87 359.29 349.87 361.08 Z" fill="none" stroke="black" stroke-width="1.8" stroke-linecap="round" stroke-linejoin="round"/>
<path d="M 341.62 369.03 C 341.62 369.84 340.96 370.5 340.15 370.5 C 339.34 370.5 338.68 369.84 338.68 369.03 C 338.68 368.22 339.34 367.56 340.15 367.56 C 340.96 367.56 341.62 368.22 341.62 369.03 Z" fill="none" stroke="black" stroke-width="1.8" stroke-linecap="round" stroke-linejoin="round"/>
<path d="M 317.04 396.52 C 317.04 402.62 312.1 407.56 306 407.56 C 299.9 407.56 294.96 402.62 294.96 396.52 C 294.96 390.42 299.9 385.48 306 385.48 C 312.1 385.48 317.04 390.42 317.04 396.52 Z" fill="none" stroke="black" stroke-width="2.4" stroke-linecap="round" stroke-linejoin="round"/>
<path d="M 280.24 410.32 C 295.7 429.64 316.3 429.64 331.76 410.32" fill="none" stroke="black" stroke-width="2.4" stroke-linecap="round" stroke-linejoin="round"/>
<path d="M 425.6 364.32 L 425.6 666" fill="none" stroke="black" stroke-width="2.4" stroke-linecap="round" stroke-linejoin="round"/>
<path d="M 417.6 364 L 433.6 364" fill="none" stroke="black" stroke-width="1.8" stroke-linecap="round" stroke-linejoin="round"/>
<path d="M 417.6 404 L 433.6 404" fill="none" stroke="black" stroke-width="1.8" stroke-linecap="round" stroke-linejoin="round"/>
<path d="M 417.6 444 L 433.6 444" fill="none" stroke="black" stroke-width="1.8" stroke-linecap="round" stroke-linejoin="round"/>
<path d="M 417.6 484 L 433.6 484" fill="none" stroke="black" stroke-width="1.8" stroke-linecap="round" stroke-linejoin="round"/>
<path d="M 417.6 524 L 433.6 524" fill="none" stroke="black" stroke-width="1.8" stroke-linecap="round" stroke-linejoin="round"/>
<path d="M 417.6 564 L 433.6 564" fill="none" stroke="black" stroke-width="1.8" stroke-linecap="round" stroke-linejoin="round"/>
<path d="M 417.6 604 L 433.6 604" fill="none" stroke="black" stroke-width="1.8" stroke-linecap="round" stroke-linejoin="round"/>
<path d="M 417.6 644 L 433.6 644" fill="none" stroke="black" stroke-width="1.8" stroke-linecap="round" stroke-linejoin="round"/>
<path d="M 448.6 364.32 L 448.6 666" fill="none" stroke="black" stroke-width="2.4" stroke-linecap="round" stroke-linejoin="round"/>
<path d="M 440.6 364 L 456.6 364" fill="none" stroke="black" stroke-width="1.8" stroke-linecap="round" stroke-linejoin="round"/>
<path d="M 440.6 404 L 456.6 404" fill="none" stroke="black" stroke-width="1.8" stroke-linecap="round" stroke-linejoin="round"/>
<path d="M 440.6 444 L 456.6 444" fill="none" stroke="black" stroke-width="1.8" stroke-linecap="round" stroke-linejoin="round"/>
<path d="M 440.6 484 L 456.6 484" fill="none" stroke="black" stroke-width="1.8" stroke-linecap="round" stroke-linejoin="round"/>
<path d="M 440.6 524 L 456.6 524" fill="none" stroke="black" stroke-width="1.8" stroke-linecap="round" stroke-linejoin="round"/>
<path d="M 440.6 564 L 456.6 564" fill="none" stroke="black" stroke-width="1.8" stroke-linecap="round" stroke-linejoin="round"/>
<path d="M 440.6 604 L 456.6 604" fill="none" stroke="black" stroke-width="1.8" stroke-linecap="round" stroke-linejoin="round"/>
<path d="M 440.6 644 L 456.6 644" fill="none" stroke="black" stroke-width="1.8" stroke-linecap="round" stroke-linejoin="round"/>
<path d="M 425.6 354.32 C 425.6 354.32 411.24 348.22 405.68 337.61 C 417.1 341.24 425.6 354.32 425.6 354.32 Z" fill="none" stroke="black" stroke-width="2.4" stroke-linecap="round" stroke-linejoin="round"/>
<path d="M 194.8 762.88 L 194.8 752.88 L 201.8 752.88 L 204.3 755.38 L 201.8 757.88 L 194.8 757.88" fill="none" stroke="black" stroke-width="1.3" stroke-linecap="round" stroke-linejoin="round"/>
<path d="M 206.6 762.88 L 211.6 752.88 L 216.6 762.88" fill="none" stroke="black" stroke-width="1.3" stroke-linecap="round" stroke-linejoin="round"/>
<path d="M 208.1 758.88 L 215.1 758.88" fill="none" stroke="black" stroke-width="1.3" stroke-linecap="round" stroke-linejoin="round"/>
<path d="M 218.4 762.88 L 218.4 752.88 L 228.4 762.88 L 228.4 752.88" fill="none" stroke="black" stroke-width="1.3" stroke-linecap="round" stroke-linejoin="round"/>
<path d="M 230.2 762.88 L 230.2 752.88 L 236.2 752.88 L 240.2 756.88 L 240.2 758.88 L 236.2 762.88 L 230.2 762.88" fill="none" stroke="black" stroke-width="1.3" stroke-linecap="round" stroke-linejoin="round"/>
<path d="M 242 762.88 L 247 752.88 L 252 762.88" fill="none" stroke="black" stroke-width="1.3" stroke-linecap="round" stroke-linejoin="round"/>
<path d="M 243.5 758.88 L 250.5 758.88" fill="none" stroke="black" stroke-width="1.3" stroke-linecap="round" stroke-linejoin="round"/>
<path d="M 275.6 752.88 L 265.6 752.88 L 265.6 762.88 L 275.6 762.88" fill="none" stroke="black" stroke-width="1.3" stroke-linecap="round" stroke-linejoin="round"/>
<path d="M 265.6 757.88 L 272.6 757.88" fill="none" stroke="black" stroke-width="1.3" stroke-linecap="round" stroke-linejoin="round"/>
<path d="M 277.4 762.88 L 282.4 752.88 L 287.4 762.88" fill="none" stroke="black" stroke-width="1.3" stroke-linecap="round" stroke-linejoin="round"/>
<path d="M 278.9 758.88 L 285.9 758.88" fill="none" stroke="black" stroke-width="1.3" stroke-linecap="round" stroke-linejoin="round"/>
<path d="M 289.2 752.88 L 299.2 752.88" fill="none" stroke="black" stroke-width="1.3" stroke-linecap="round" stroke-linejoin="round"/>
<path d="M 294.2 752.88 L 294.2 762.88" fill="none" stroke="black" stroke-width="1.3" stroke-linecap="round" stroke-linejoin="round"/>
<path d="M 306 762.88 L 306 752.88" fill="none" stroke="black" stroke-width="1.3" stroke-linecap="round" stroke-linejoin="round"/>
<path d="M 303 752.88 L 309 752.88" fill="none" stroke="black" stroke-width="1.3" stroke-linecap="round" stroke-linejoin="round"/>
<path d="M 303 762.88 L 309 762.88" fill="none" stroke="black" stroke-width="1.3" stroke-linecap="round" stroke-linejoin="round"/>
<path d="M 312.8 762.88 L 312.8 752.88 L 322.8 762.88 L 322.8 752.88" fill="none" stroke="black" stroke-width="1.3" stroke-linecap="round" stroke-linejoin="round"/>
<path d="M 334.6 754.38 L 329.6 752.88 L 324.6 755.88 L 324.6 759.88 L 329.6 762.88 L 334.6 761.38 L 334.6 758.38 L 330.6 758.38" fill="none" stroke="black" stroke-width="1.3" stroke-linecap="round" stroke-linejoin="round"/>
<path d="M 348.2 762.88 L 348.2 752.88 L 355.2 752.88 L 357.2 754.38 L 355.2 757.38 L 348.2 757.38" fill="none" stroke="black" stroke-width="1.3" stroke-linecap="round" stroke-linejoin="round"/>
<path d="M 348.2 757.38 L 355.7 757.38 L 357.7 759.38 L 355.7 762.88 L 348.2 762.88" fill="none" stroke="black" stroke-width="1.3" stroke-linecap="round" stroke-linejoin="round"/>
<path d="M 360 762.88 L 365 752.88 L 370 762.88" fill="none" stroke="black" stroke-width="1.3" stroke-linecap="round" stroke-linejoin="round"/>
<path d="M 361.5 758.88 L 368.5 758.88" fill="none" stroke="black" stroke-width="1.3" stroke-linecap="round" stroke-linejoin="round"/>
<path d="M 371.8 762.88 L 371.8 752.88 L 376.8 758.88 L 381.8 752.88 L 381.8 762.88" fill="none" stroke="black" stroke-width="1.3" stroke-linecap="round" stroke-linejoin="round"/>
<path d="M 383.6 762.88 L 383.6 752.88 L 390.6 752.88 L 392.6 754.38 L 390.6 757.38 L 383.6 757.38" fill="none" stroke="black" stroke-width="1.3" stroke-linecap="round" stroke-linejoin="round"/>
<path d="M 383.6 757.38 L 391.1 757.38 L 393.1 759.38 L 391.1 762.88 L 383.6 762.88" fill="none" stroke="black" stroke-width="1.3" stroke-linecap="round" stroke-linejoin="round"/>
<path d="M 400.4 752.88 L 395.4 755.88 L 395.4 759.88 L 400.4 762.88 L 405.4 759.88 L 405.4 755.88 L 400.4 752.88" fill="none" stroke="black" stroke-width="1.3" stroke-linecap="round" stroke-linejoin="round"/>
<path d="M 412.2 752.88 L 407.2 755.88 L 407.2 759.88 L 412.2 762.88 L 417.2 759.88 L 417.2 755.88 L 412.2 752.88" fill="none" stroke="black" stroke-width="1.3" stroke-linecap="round" stroke-linejoin="round"/>
<path d="M 312 764.88 L 301.2 764.88 L 301.2 770.28 L 308.4 769.68 L 311.4 772.68 L 307.2 776.88 L 300 775.68" fill="none" stroke="black" stroke-width="1.5" stroke-linecap="round" stroke-linejoin="round"/>
</svg>